<?xml version="1.0" encoding="UTF-8"?>
<svg version="1.1" xmlns="http://www.w3.org/2000/svg" width="512" height="512">
<path d="M0 0 C22.03852652 18.81159856 36.46579334 41.06373377 44.3515625 68.91015625 C44.69316406 70.08835937 45.03476562 71.2665625 45.38671875 72.48046875 C52.92056498 104.36791093 46.53869956 140.38566089 29.7109375 168.21484375 C19.22380228 184.89578124 5.20171214 199.62660904 -11.6484375 209.91015625 C-12.7209375 210.59335938 -13.7934375 211.2765625 -14.8984375 211.98046875 C-42.75922794 228.94201478 -78.25061189 233.92648545 -110.03027344 226.74707031 C-117.81941729 224.77736357 -125.2980262 222.14033195 -132.6484375 218.91015625 C-133.30263672 218.62688477 -133.95683594 218.34361328 -134.63085938 218.05175781 C-164.72593234 204.76588414 -188.43262339 179.18859339 -200.51953125 148.71386719 C-202.47890077 143.51521742 -204.1350825 138.25415274 -205.6484375 132.91015625 C-205.99003906 131.73195312 -206.33164063 130.55375 -206.68359375 129.33984375 C-214.21743998 97.45240157 -207.83557456 61.43465161 -191.0078125 33.60546875 C-172.71931393 4.51560818 -145.47270495 -14.79440926 -112.6484375 -24.08984375 C-111.47023438 -24.43144531 -110.29203125 -24.77304687 -109.078125 -25.125 C-71.91216204 -33.90596927 -29.43835184 -24.14652242 0 0 Z " fill="#000000" transform="translate(336.6484375,43.08984375)"/>
<path d="M0 0 C0.886875 0.763125 1.77375 1.52625 2.6875 2.3125 C3.33074219 2.86035156 3.97398437 3.40820312 4.63671875 3.97265625 C6.37951265 5.46771416 8.10942269 6.9778222 9.83203125 8.49609375 C38.87877621 33.89423386 72.03151227 45.66815887 110 50 C108.73834892 53.29571943 107.32761638 56.36840792 105.609375 59.44921875 C86.04216165 95.16289993 81.26155482 133.27208834 92.30126953 172.65039062 C100.219167 199.27577331 116.29043135 222.70276417 137.41796875 240.57421875 C137.94003906 241.04472656 138.46210938 241.51523437 139 242 C139 242.33 139 242.66 139 243 C112.12201285 243.11697013 85.24406404 243.20505525 58.36587334 243.25906086 C45.88494211 243.28480674 33.40416934 243.31988822 20.92333984 243.37719727 C10.04092331 243.42714282 -0.84137843 243.45931727 -11.7239064 243.47044247 C-17.48242465 243.4769423 -23.24061457 243.49214346 -28.99902725 243.52865028 C-34.42780357 243.5627859 -39.85611876 243.57301758 -45.28499222 243.56553841 C-47.26903292 243.56690513 -49.25309031 243.57673211 -51.23703766 243.59602737 C-68.36817108 243.75435685 -81.44533025 241.30519574 -94.1484375 228.90234375 C-104.67740908 217.80582538 -107.31172107 206.50741748 -107.30078125 191.640625 C-107.30506638 190.34163269 -107.3093515 189.04264038 -107.31376648 187.70428467 C-107.3212081 184.95401937 -107.32095669 182.20388238 -107.31567383 179.45361328 C-107.31107538 176.67252284 -107.31783395 173.89187299 -107.33618164 171.11083984 C-107.46653748 151.16277693 -106.68475746 132.29462395 -100.875 113.0625 C-100.5756958 112.06017334 -100.2763916 111.05784668 -99.96801758 110.02514648 C-91.85705643 83.83690916 -77.81201659 60.83050156 -59 41 C-58.53787109 40.50532227 -58.07574219 40.01064453 -57.59960938 39.50097656 C-41.3351866 22.18139136 -21.80853496 9.33026017 0 0 Z " fill="#000000" transform="translate(139,253)"/>
<path d="M0 0 C0.98870087 0.00081573 0.98870087 0.00081573 1.99737549 0.00164795 C12.97851814 0.04318906 22.9941372 0.99005212 33.4375 4.375 C34.1190918 4.58930664 34.80068359 4.80361328 35.50292969 5.02441406 C49.73101879 9.60701941 62.12362402 16.56213576 73.4375 26.375 C74.24574219 27.03886719 75.05398438 27.70273437 75.88671875 28.38671875 C96.07609101 45.53342267 109.25124274 71.13485723 112.4375 97.375 C112.74917763 102.2327634 112.8193035 107.07052175 112.8125 111.9375 C112.81195618 112.59663391 112.81141235 113.25576782 112.81085205 113.93487549 C112.76931094 124.91601814 111.82244788 134.9316372 108.4375 145.375 C108.22319336 146.0565918 108.00888672 146.73818359 107.78808594 147.44042969 C103.20548059 161.66851879 96.25036424 174.06112402 86.4375 185.375 C85.77363281 186.18324219 85.10976563 186.99148438 84.42578125 187.82421875 C67.27907733 208.01359101 41.67764277 221.18874274 15.4375 224.375 C10.5797366 224.68667763 5.74197825 224.7568035 0.875 224.75 C-0.11370087 224.74918427 -0.11370087 224.74918427 -1.12237549 224.74835205 C-12.10351814 224.70681094 -22.1191372 223.75994788 -32.5625 220.375 C-33.2440918 220.16069336 -33.92568359 219.94638672 -34.62792969 219.72558594 C-63.50379682 210.42520116 -86.38092467 190.21716205 -100.5234375 163.55078125 C-103.95336616 156.74376597 -106.4124905 149.67428227 -108.5625 142.375 C-108.9028125 141.26898438 -109.243125 140.16296875 -109.59375 139.0234375 C-114.3475081 120.22848648 -113.53630185 97.80558805 -107.5625 79.375 C-107.24104004 78.3526123 -107.24104004 78.3526123 -106.91308594 77.30957031 C-102.33048059 63.08148121 -95.37536424 50.68887598 -85.5625 39.375 C-84.89863281 38.56675781 -84.23476563 37.75851562 -83.55078125 36.92578125 C-62.77473431 12.46304206 -31.6910011 -0.04430055 0 0 Z M-10.5625 69.375 C-15.50214571 75.64968509 -15.71522514 80.92119716 -15.625 88.6875 C-15.62048828 89.42806641 -15.61597656 90.16863281 -15.61132812 90.93164062 C-15.59962175 92.74612899 -15.58168898 94.56057534 -15.5625 96.375 C-16.61308594 96.34019531 -17.66367187 96.30539062 -18.74609375 96.26953125 C-31.2806143 95.58903387 -31.2806143 95.58903387 -42.17578125 100.83984375 C-46.26482185 105.55087926 -46.91828775 108.78703334 -46.83984375 114.8359375 C-46.42873556 118.59960402 -45.0796364 120.59290187 -42.5625 123.375 C-36.28781491 128.31464571 -31.01630284 128.52772514 -23.25 128.4375 C-22.50943359 128.43298828 -21.76886719 128.42847656 -21.00585938 128.42382812 C-19.19137101 128.41212175 -17.37692466 128.39418898 -15.5625 128.375 C-15.59730469 129.42558594 -15.63210938 130.47617187 -15.66796875 131.55859375 C-16.34846613 144.0931143 -16.34846613 144.0931143 -11.09765625 154.98828125 C-6.38662074 159.07732185 -3.15046666 159.73078775 2.8984375 159.65234375 C6.66210402 159.24123556 8.65540187 157.8921364 11.4375 155.375 C16.37714571 149.10031491 16.59022514 143.82880284 16.5 136.0625 C16.49548828 135.32193359 16.49097656 134.58136719 16.48632812 133.81835938 C16.47462175 132.00387101 16.45668898 130.18942466 16.4375 128.375 C17.48808594 128.40980469 18.53867187 128.44460938 19.62109375 128.48046875 C32.1556143 129.16096613 32.1556143 129.16096613 43.05078125 123.91015625 C47.13982185 119.19912074 47.79328775 115.96296666 47.71484375 109.9140625 C47.30373556 106.15039598 45.9546364 104.15709813 43.4375 101.375 C37.16281491 96.43535429 31.89130284 96.22227486 24.125 96.3125 C23.38443359 96.31701172 22.64386719 96.32152344 21.88085938 96.32617188 C20.06637101 96.33787825 18.25192466 96.35581102 16.4375 96.375 C16.47230469 95.32441406 16.50710938 94.27382813 16.54296875 93.19140625 C17.22346613 80.6568857 17.22346613 80.6568857 11.97265625 69.76171875 C7.26162074 65.67267815 4.02546666 65.01921225 -2.0234375 65.09765625 C-5.78710402 65.50876444 -7.78040187 66.8578636 -10.5625 69.375 Z " fill="#000000" transform="translate(367.5625,271.625)"/>
</svg>
