<?xml version="1.0" encoding="UTF-8"?>
<svg version="1.1" xmlns="http://www.w3.org/2000/svg" width="512" height="512">
<path d="M0 0 C0.90885094 -0.00297112 1.81770189 -0.00594224 2.75409377 -0.0090034 C5.78281883 -0.01763667 8.81150411 -0.0191941 11.84024048 -0.02069092 C14.01908451 -0.02532303 16.19792773 -0.03034822 18.37677002 -0.03573608 C24.28640702 -0.04882735 30.19603267 -0.05529908 36.1056819 -0.05974674 C39.80448145 -0.06268379 43.50327795 -0.06678986 47.20207596 -0.07125092 C58.79383561 -0.08491951 70.38558822 -0.09458832 81.97735536 -0.09845281 C83.29593557 -0.0988949 84.61451579 -0.09933699 85.97305298 -0.09979248 C86.96403114 -0.10012463 86.96403114 -0.10012463 87.97502907 -0.10046348 C99.32040184 -0.1046481 110.66568605 -0.12479331 122.01103342 -0.1494534 C132.34854761 -0.17113629 142.68603303 -0.18116066 153.0235697 -0.18249393 C159.18664548 -0.18353756 165.34962457 -0.1893505 171.51267624 -0.20731354 C177.31905752 -0.22390794 183.12527064 -0.22589502 188.93166733 -0.21717453 C191.04946852 -0.21641011 193.16727918 -0.22066721 195.28505707 -0.23063278 C208.07103367 -0.28721537 220.11983237 0.57260302 232.65518188 3.14044189 C233.62930212 3.33832684 234.60342236 3.53621178 235.60706139 3.74009323 C274.15298282 11.8978584 308.56459511 36.44591635 330.21768188 69.14044189 C348.09280975 97.03594476 356.87791994 128.03865487 356.90518188 161.01544189 C356.90585663 161.74932129 356.90653137 162.48320068 356.90722656 163.23931885 C356.84543814 205.60654379 340.42346239 244.02801942 310.65518188 274.14044189 C300.45414839 284.2207531 277.06332158 306.14044189 261.65518188 306.14044189 C261.65518188 316.37044189 261.65518188 326.60044189 261.65518188 337.14044189 C265.54686157 337.09403564 269.43854126 337.04762939 273.44815063 336.99981689 C277.25437112 336.9685428 281.0605768 336.94429966 284.86685181 336.92071533 C287.49419658 336.90070976 290.12149745 336.87349653 292.74868774 336.83868408 C296.54445285 336.78967857 300.33962478 336.76736139 304.13565063 336.74981689 C305.29348557 336.72917175 306.4513205 336.70852661 307.64424133 336.68725586 C321.4516787 336.68353185 333.58884841 340.85833529 343.90518188 350.17169189 C354.01430412 360.74031968 357.96141966 373.26419555 357.94570923 387.58477783 C357.95578506 388.93067993 357.95578506 388.93067993 357.96606445 390.30377197 C357.9849249 393.244178 357.98896266 396.1843543 357.99111938 399.12481689 C357.99755587 401.18831472 358.00428485 403.25181165 358.0112915 405.31530762 C358.02323462 409.63236606 358.02697541 413.94934467 358.02578735 418.26641846 C358.0255844 423.76809549 358.05287595 429.26925464 358.08733177 434.77080917 C358.10969115 439.03135478 358.11362212 443.29177755 358.1125679 447.55237579 C358.11491067 449.57914259 358.12365855 451.60591346 358.13923264 453.63262177 C358.2608937 471.10026215 356.41251486 486.05096781 343.90518188 499.39044189 C332.54637369 510.07981463 320.60009082 512.59709647 305.39639282 512.54449463 C303.98594628 512.55020848 302.57550435 512.55717663 301.16506958 512.56529236 C297.36365958 512.58311837 293.5624817 512.58207656 289.76104259 512.57634997 C286.57986952 512.57324547 283.39874022 512.5793639 280.2175734 512.58538872 C272.71399126 512.599395 265.21052309 512.59790274 257.7069397 512.58648682 C249.97573317 512.57498433 242.24487268 512.58912567 234.51371169 512.61588329 C227.86036803 512.63804499 221.20713299 512.64467737 214.55375504 512.63880688 C210.5864597 512.63544023 206.61938664 512.63783391 202.6521225 512.65505791 C198.92547098 512.67053476 195.1993333 512.66656394 191.47270203 512.64775276 C189.45814208 512.64231748 187.44355899 512.65657158 185.42904663 512.67144775 C174.44778113 512.58186075 174.44778113 512.58186075 169.65518188 508.14044189 C169.10577816 507.63861987 168.55637444 507.13679785 167.99032211 506.6197691 C166.04276575 504.80368271 164.15792981 502.93629748 162.27627563 501.05206299 C161.56327301 500.34577759 160.85027039 499.63949219 160.11566162 498.9118042 C157.76935829 496.58443667 155.43061165 494.24965643 153.09268188 491.91387939 C151.45667874 490.28430782 149.82052734 488.65488505 148.18423462 487.02560425 C144.75789253 483.61122434 141.33569687 480.19274846 137.91592407 476.77178955 C133.54834202 472.40400452 129.16717819 468.05012734 124.78230286 463.69971275 C121.39867011 460.33839587 118.02424633 456.96794788 114.65228271 453.59492874 C113.04167513 451.98667064 111.42784794 450.3816298 109.81066895 448.77997971 C107.5421176 446.53117948 105.28677267 444.26986792 103.03408813 442.00518799 C102.37313141 441.35547028 101.71217468 440.70575256 101.03118896 440.03634644 C92.43497321 431.32423447 86.91366658 421.24125704 86.56143188 408.83966064 C87.05878932 398.2583813 90.19644478 388.83881714 97.65518188 381.14044189 C104.94119432 374.71923805 112.44944892 370.21332331 121.65518188 367.14044189 C122.37834595 366.89552002 123.10151001 366.65059814 123.84658813 366.39825439 C137.50653088 362.61390593 153.13285169 364.8792768 165.65518188 371.14044189 C165.65518188 354.31044189 165.65518188 337.48044189 165.65518188 320.14044189 C160.79187134 320.15091553 155.92856079 320.16138916 150.9178772 320.17218018 C134.79279076 320.20542055 118.66770292 320.22755388 102.54259109 320.24406624 C92.77248629 320.25433885 83.00241415 320.26832151 73.23233032 320.2913208 C64.70767211 320.31137857 56.18303758 320.32418743 47.65835643 320.32861888 C43.15284588 320.33120549 38.64740302 320.33719931 34.14191437 320.35190201 C-9.3929846 320.48842305 -9.3929846 320.48842305 -30.40731812 315.95294189 C-31.40698608 315.73936035 -32.40665405 315.52577881 -33.43661499 315.3057251 C-58.973664 309.57370606 -84.39723732 297.33149496 -103.34481812 279.14044189 C-104.65325842 278.05220877 -105.96563708 276.96868974 -107.28231812 275.89044189 C-121.91231164 263.05608138 -132.38980579 245.69406413 -140.34481812 228.14044189 C-140.62309448 227.52733154 -140.90137085 226.91422119 -141.18807983 226.28253174 C-158.98035174 186.30629257 -158.78839 139.4050016 -143.69784546 98.66290283 C-129.03340603 60.84138807 -100.78858833 31.58357063 -64.18075562 14.38800049 C-44.19427156 5.59573693 -21.8982712 -0.02269696 0 0 Z M-26.15731812 34.39044189 C-27.02348755 34.60515137 -27.88965698 34.81986084 -28.78207397 35.04107666 C-36.62969741 37.06591876 -43.96673582 39.78755169 -51.34481812 43.14044189 C-52.87622437 43.81526611 -52.87622437 43.81526611 -54.43856812 44.50372314 C-83.17401736 57.92620272 -104.83046178 83.72051692 -115.64266968 113.19317627 C-115.87437866 113.83577393 -116.10608765 114.47837158 -116.34481812 115.14044189 C-116.74442749 116.23872314 -117.14403687 117.33700439 -117.55575562 118.46856689 C-128.85109311 152.26965203 -124.7651513 189.46487288 -109.33798218 221.2131958 C-93.76570526 251.43137525 -66.88344164 272.38133623 -34.91903687 282.82403564 C-17.62117757 288.06177106 -0.00541135 289.29828052 17.95864868 289.25396729 C19.57601418 289.25368468 21.19337981 289.25384458 22.81074524 289.25440979 C27.1694704 289.25469489 31.52816764 289.24884478 35.88688636 289.24183583 C40.45392192 289.2355543 45.02095822 289.23499471 49.58799744 289.23381042 C58.22205006 289.2307112 66.85608991 289.22251691 75.49013692 289.21246094 C85.32575331 289.20125591 95.16137033 289.19577831 104.99699152 289.1907655 C125.21639541 289.18033303 145.43578784 289.16276103 165.65518188 289.14044189 C165.93434448 287.51888184 165.93434448 287.51888184 166.21914673 285.86456299 C166.47609513 284.42260144 166.7334405 282.98071059 166.99111938 281.53887939 C167.11221069 280.82916992 167.233302 280.11946045 167.35806274 279.38824463 C169.37918994 268.21750673 174.92048626 258.46999083 183.65518188 251.14044189 C196.86820744 242.58421165 210.98716776 240.08932783 226.36611938 242.79278564 C237.14636589 245.77591799 246.27858122 251.87808035 252.65518188 261.14044189 C254.83199252 265.06449299 256.79708371 269.05670964 258.65518188 273.14044189 C286.78196097 260.76465909 307.57589759 234.15644987 318.65518188 206.14044189 C323.83797806 191.72757419 326.05210222 177.53192737 326.03018188 162.20294189 C326.02930573 161.52646606 326.02842957 160.84999023 326.02752686 160.15301514 C325.87837013 125.04286323 312.70359267 93.64507133 288.65518188 68.14044189 C287.99260376 67.40180908 287.33002563 66.66317627 286.64736938 65.90216064 C264.1920316 41.86726487 230.61899986 31.60402545 198.65518188 30.14044189 C192.29669758 29.96463517 185.93497431 29.99313362 179.57461548 29.99517822 C177.6936944 29.99217928 175.81277393 29.98877508 173.93185425 29.98500061 C168.86125086 29.97623072 163.79066439 29.97382546 158.72005415 29.97318482 C155.54082155 29.97247027 152.36159315 29.97032831 149.1823616 29.96768761 C138.05887838 29.95845701 126.93540709 29.9543498 115.81192017 29.95513916 C105.4953119 29.95573916 95.17875605 29.94519658 84.86216104 29.9293955 C75.96142503 29.91625597 67.06070601 29.91095795 58.15996039 29.91159457 C52.86324758 29.9118477 47.56658141 29.9091 42.26987839 29.89841652 C37.28092608 29.88862695 32.29206399 29.88872948 27.30310822 29.89593315 C25.48930604 29.89696569 23.67549791 29.89469708 21.86170578 29.88857269 C5.81402927 29.83796757 -10.53751515 30.3893181 -26.15731812 34.39044189 Z M199.28018188 279.14044189 C197.03928687 283.27747885 196.53060839 286.46248237 196.52388 291.13674927 C196.51987183 292.14327545 196.51586365 293.14980164 196.51173401 294.18682861 C196.51226273 295.28510986 196.51279144 296.38339111 196.51333618 297.51495361 C196.50812454 299.25701584 196.50812454 299.25701584 196.50280762 301.03427124 C196.4954539 303.55733638 196.49010647 306.08040799 196.48651695 308.60348129 C196.47935408 312.59607871 196.46404242 316.58859161 196.44517517 320.58114624 C196.4388382 321.94942278 196.43251257 323.31769938 196.42619801 324.68597603 C196.42303219 325.37110401 196.41986638 326.056232 196.41660464 326.76212144 C196.3745672 336.05406554 196.34155163 345.34596758 196.32925415 354.63800049 C196.32086793 360.91032302 196.29835879 367.1824253 196.25989848 373.45463765 C196.24016011 376.77147356 196.22994154 380.08790768 196.23273277 383.40481186 C196.23508128 387.10592605 196.21295208 390.80614743 196.18521118 394.50714111 C196.1951133 396.1484903 196.1951133 396.1484903 196.20521545 397.82299805 C196.13039039 403.89754799 195.76210375 407.54245301 191.65518188 412.14044189 C187.68678562 414.90909045 183.96144639 415.86269247 179.18643188 415.67169189 C172.30179876 414.22676889 166.50074875 409.39000858 160.76455688 405.51934814 C159.77189819 404.8510498 159.77189819 404.8510498 158.75918579 404.16925049 C157.46874489 403.29462894 156.18420908 402.41121136 154.90664673 401.5178833 C148.13213886 396.8641865 141.85803624 395.16477199 133.65518188 396.14044189 C127.57637453 397.77263255 122.53597482 400.00778027 118.65518188 405.14044189 C117.41116911 407.526528 117.41116911 407.526528 117.65518188 410.14044189 C118.93289673 412.17642385 120.2774032 414.17079632 121.65518188 416.14044189 C122.36763565 417.20539886 123.08008942 418.27035583 123.81413269 419.36758423 C130.99097006 429.93455611 138.83065034 439.88321853 147.21768188 449.51544189 C147.89205669 450.29055996 148.5664315 451.06567802 149.26124191 451.86428452 C167.87928172 472.89358627 186.56626314 484.65397172 214.92294502 486.40041351 C227.53537321 487.06449288 240.10177695 486.92403777 252.71768188 486.45294189 C253.41593535 486.42808181 254.11418881 486.40322172 254.83360147 486.3776083 C269.71413825 485.84179807 284.56515496 484.94763643 299.38980103 483.52838135 C300.40402413 483.43564627 301.41824724 483.34291119 302.46320438 483.24736595 C313.58205927 482.18932128 313.58205927 482.18932128 322.59268188 476.26544189 C326.25704819 470.71337173 326.95333083 466.29735967 326.94570923 459.71343994 C326.95242645 458.87699951 326.95914368 458.04055908 326.96606445 457.17877197 C326.98502651 454.41984071 326.98896786 451.66115298 326.99111938 448.90216064 C326.99754899 446.97790935 327.00427747 445.05365904 327.0112915 443.12940979 C327.02326009 439.09701268 327.0269728 435.06470121 327.02578735 431.0322876 C327.02558429 425.87749959 327.05287546 420.72326366 327.08733177 415.56860638 C327.10962379 411.59391278 327.11362417 407.61935152 327.1125679 403.64460182 C327.11492081 401.74488232 327.12372679 399.845159 327.13923264 397.94550133 C327.15893758 395.28182257 327.15303703 392.61932727 327.14102173 389.95562744 C327.15226074 389.17873062 327.16349976 388.4018338 327.17507935 387.60139465 C327.11216093 382.08277775 325.8115235 377.71847371 322.65518188 373.14044189 C317.3403772 368.91029123 313.49392043 368.0171645 306.8163147 367.99859619 C306.12486359 367.99512177 305.43341248 367.99164734 304.7210083 367.98806763 C303.21996107 367.98071944 301.71890303 367.97536906 300.2178421 367.97177696 C297.83804061 367.96459952 295.45844389 367.94892254 293.07870483 367.93043518 C286.31255945 367.87803264 279.54652575 367.83001774 272.78018188 367.81451416 C268.63975211 367.80440583 264.49983737 367.77500864 260.35961151 367.73319435 C258.7856817 367.72091867 257.21167903 367.71575681 255.63770294 367.71799278 C253.4284566 367.72035848 251.22067482 367.69808628 249.0116272 367.67047119 C247.75714783 367.66460495 246.50266846 367.65873871 245.21017456 367.6526947 C239.89740038 366.88715628 236.23728721 365.06021442 232.74172974 360.81860352 C231.39096693 357.48919551 231.27654167 354.88348744 231.27041626 351.28985596 C231.26504349 350.62083252 231.25967072 349.95180908 231.25413513 349.26251221 C231.2443861 347.81609221 231.24140428 346.36961392 231.24449158 344.92316437 C231.24898985 342.62647397 231.23491157 340.33054603 231.21609497 338.03393555 C231.17937845 333.15278334 231.16562529 328.27171179 231.15518188 323.39044189 C231.14306379 317.74424323 231.12128907 312.0984171 231.07518005 306.45238495 C231.06171243 304.20292602 231.06576271 301.95395048 231.07058716 299.70446777 C231.03789062 290.99071536 230.96876161 283.13373028 225.21768188 276.20294189 C220.53447737 272.43353338 217.13564112 271.68784639 211.19033813 271.82794189 C205.81326731 272.49075494 202.65427892 274.87842458 199.28018188 279.14044189 Z " fill="#000000" transform="translate(154.34481811523438,-0.14044189453125)"/>
<path d="M0 0 C7.59030861 5.28021469 11.7458852 14.70143769 16.1875 22.5625 C21.62218371 32.12320015 27.18465327 41.58970258 32.875 51 C32.8843457 49.75911621 32.89369141 48.51823242 32.90332031 47.23974609 C32.94329283 42.62122134 33.00907207 38.00335762 33.08251953 33.38525391 C33.11068703 31.38924675 33.13192252 29.39312894 33.14599609 27.39697266 C33.16748403 24.52188636 33.21416426 21.64812471 33.265625 18.7734375 C33.26685364 17.88570648 33.26808228 16.99797546 33.26934814 16.08334351 C33.39858613 10.57515177 34.21786042 7.37712292 37.875 3 C41.90957634 -0.54553678 45.44465804 -1.30939271 50.8203125 -1.2109375 C55.51785106 -0.72868069 58.64457573 1.50334261 61.6875 4.9375 C64.46044729 8.81962621 64.99638819 11.57936967 65.01544189 16.26826477 C65.02115204 17.11347687 65.02686218 17.95868896 65.03274536 18.82951355 C65.03442215 20.20808281 65.03442215 20.20808281 65.03613281 21.61450195 C65.04358017 23.07617798 65.04358017 23.07617798 65.05117798 24.56738281 C65.06578272 27.79102281 65.07259875 31.0146136 65.078125 34.23828125 C65.08387775 36.48023988 65.08963547 38.7221985 65.09539795 40.9641571 C65.10590307 45.66580433 65.11174897 50.36743448 65.11523438 55.0690918 C65.12071864 61.08817185 65.14474747 67.10702564 65.17320633 73.12603474 C65.19184657 77.7577734 65.19703905 82.3894577 65.19857025 87.0212307 C65.20159406 89.23995386 65.2096134 91.45867614 65.22275543 93.67736244 C65.23984488 96.78418739 65.23792844 99.89046133 65.23144531 102.99731445 C65.2406601 103.91028793 65.24987488 104.82326141 65.2593689 105.76390076 C65.21392399 112.72995558 64.06847638 117.47750216 59.375 122.875 C55.27995507 126.35578819 51.53436152 126.3590713 46.3671875 126.26171875 C42.47848693 125.85334424 40.73288931 124.66736336 37.875 122 C32.73636671 115.3385737 28.55088401 108.16726094 24.5 100.8125 C19.48237725 91.75430415 14.23881205 82.85594792 8.875 74 C8.8656543 75.24088379 8.85630859 76.48176758 8.84667969 77.76025391 C8.80670717 82.37877866 8.74092793 86.99664238 8.66748047 91.61474609 C8.63931297 93.61075325 8.61807748 95.60687106 8.60400391 97.60302734 C8.58251597 100.47811364 8.53583574 103.35187529 8.484375 106.2265625 C8.48253204 107.55815903 8.48253204 107.55815903 8.48065186 108.91665649 C8.35135827 114.42721791 7.53851458 117.6271738 3.875 122 C-0.47683072 125.93737065 -4.04232898 126.63423042 -9.7265625 126.38671875 C-14.54339982 125.61006257 -17.22998487 122.96758392 -20.4375 119.5 C-22.82815465 115.95828941 -23.24896296 112.98563354 -23.25871277 108.7696991 C-23.26297775 107.93290115 -23.26724274 107.09610321 -23.27163696 106.23394775 C-23.27118378 105.32425232 -23.27073059 104.41455688 -23.27026367 103.47729492 C-23.27362228 102.51259781 -23.2769809 101.5479007 -23.28044128 100.55397034 C-23.28994497 97.36279006 -23.29189418 94.1716623 -23.29296875 90.98046875 C-23.29618198 88.76093016 -23.2995461 86.54139178 -23.30305481 84.32185364 C-23.3090448 79.6672822 -23.31089487 75.01272932 -23.31030273 70.3581543 C-23.31020118 64.39965828 -23.32384746 58.44128159 -23.34107494 52.48281384 C-23.35220512 47.89739945 -23.35422162 43.31201381 -23.35369301 38.7265873 C-23.35487181 36.53020123 -23.359288 34.33381439 -23.36702538 32.13744164 C-23.37684466 29.06183954 -23.37393935 25.9864951 -23.36791992 22.91088867 C-23.37353943 22.00726593 -23.37915894 21.10364319 -23.38494873 20.17263794 C-23.35663962 14.46789328 -23.29965561 8.63054727 -19.50390625 4.0390625 C-18.90449219 3.57242188 -18.30507813 3.10578125 -17.6875 2.625 C-16.79224609 1.90183594 -16.79224609 1.90183594 -15.87890625 1.1640625 C-11.01605041 -2.06340084 -5.32840404 -1.70508929 0 0 Z " fill="#000000" transform="translate(367.125,97)"/>
<path d="M0 0 C9.03718445 7.69961256 14.96223764 16.98720703 17.05859375 28.75390625 C17.3481473 32.66660932 17.36275218 36.56605147 17.359375 40.48828125 C17.36366013 41.60269592 17.36794525 42.7171106 17.37236023 43.86529541 C17.37808264 46.21520308 17.37861926 48.56512846 17.37426758 50.91503906 C17.37111593 54.47882916 17.39456544 58.04178154 17.41992188 61.60546875 C17.42219615 63.89973855 17.42289777 66.19401055 17.421875 68.48828125 C17.43108475 69.53868591 17.44029449 70.58909058 17.44978333 71.67132568 C17.3776617 83.41624795 14.80659084 93.09907965 8.05859375 102.75390625 C7.31609375 103.82640625 6.57359375 104.89890625 5.80859375 106.00390625 C-2.79068947 114.60318947 -14.43239254 118.80474196 -26.44140625 119.06640625 C-39.42683209 118.93057544 -49.39496733 114.59148202 -58.9375 105.9453125 C-66.38017527 98.24654518 -70.00832101 87.83232802 -70.1184082 77.23608398 C-70.13124344 76.15403183 -70.14407867 75.07197968 -70.15730286 73.95713806 C-70.16468979 72.7956575 -70.17207672 71.63417694 -70.1796875 70.4375 C-70.18775925 69.2300563 -70.19583099 68.02261261 -70.20414734 66.77857971 C-70.21796812 64.22243679 -70.22869922 61.66627558 -70.23657227 59.11010742 C-70.24807306 56.51011708 -70.26849437 53.91015 -70.2980957 51.31030273 C-70.34100771 47.54003969 -70.35697635 43.77047772 -70.3671875 40 C-70.38469559 38.85268906 -70.40220367 37.70537811 -70.42024231 36.52330017 C-70.38492163 23.19317938 -66.35376533 13.63546233 -57.37890625 4.00390625 C-56.57453125 3.26140625 -55.77015625 2.51890625 -54.94140625 1.75390625 C-54.24015625 1.09390625 -53.53890625 0.43390625 -52.81640625 -0.24609375 C-36.95079071 -11.28304369 -15.78700122 -11.55782291 0 0 Z M-37.58837891 28.73632812 C-39.60521548 33.23436133 -39.36985633 37.47178162 -39.33984375 42.34765625 C-39.34271393 43.37193726 -39.34558411 44.39621826 -39.34854126 45.45153809 C-39.35057932 47.61336827 -39.34506753 49.77521699 -39.33251953 51.93701172 C-39.31646272 55.24228223 -39.33237749 58.54632993 -39.3515625 61.8515625 C-39.34958002 63.95442978 -39.34573626 66.05729629 -39.33984375 68.16015625 C-39.34591644 69.14673218 -39.35198914 70.13330811 -39.35824585 71.14978027 C-39.29106214 77.71761349 -38.35425067 81.20318501 -33.75390625 86.06640625 C-30.02809465 88.30189321 -27.18532617 88.46839987 -22.94140625 87.75390625 C-19.22945628 86.10415071 -17.08815226 84.18869986 -14.94140625 80.75390625 C-14.01405551 77.97185404 -13.80562772 76.25421809 -13.78027344 73.37768555 C-13.77066589 72.49634445 -13.76105835 71.61500336 -13.75115967 70.70695496 C-13.74478485 69.28193413 -13.74478485 69.28193413 -13.73828125 67.828125 C-13.72973114 66.35760429 -13.72973114 66.35760429 -13.7210083 64.8573761 C-13.71156021 62.78196288 -13.70502508 60.70653467 -13.70117188 58.63110352 C-13.69147569 55.46408741 -13.66045412 52.2977229 -13.62890625 49.13085938 C-13.62237504 47.1132851 -13.61712503 45.09570619 -13.61328125 43.078125 C-13.60093445 42.13418381 -13.58858765 41.19024261 -13.5758667 40.21769714 C-13.59353215 34.97417144 -13.96386633 31.26731795 -16.94140625 26.75390625 C-20.17130034 23.96445226 -22.20773805 22.85871599 -26.44140625 22.25390625 C-31.41309928 22.96414811 -34.38970816 24.88616411 -37.58837891 28.73632812 Z " fill="#000000" transform="translate(245.94140625,104.24609375)"/>
<path d="M0 0 C0.71540955 -0.00570007 1.43081909 -0.01140015 2.16790771 -0.01727295 C3.68435182 -0.0267257 5.20081648 -0.03325803 6.71728516 -0.03710938 C9.02413473 -0.04677967 11.3300797 -0.07778397 13.63671875 -0.109375 C15.11197389 -0.11590889 16.58723539 -0.12115784 18.0625 -0.125 C18.7470929 -0.1373468 19.43168579 -0.1496936 20.13702393 -0.16241455 C24.75978149 -0.14119422 27.86968615 0.7834002 31.796875 3.203125 C36.28779029 8.17954465 36.94819428 11.26858587 36.95800781 17.79882812 C36.96545517 18.97486099 36.96545517 18.97486099 36.97305298 20.1746521 C36.98769815 22.77790193 36.99448328 25.38109067 37 27.984375 C37.005753 29.79602052 37.01151071 31.60766603 37.01727295 33.41931152 C37.027792 37.22583296 37.0336276 41.03233325 37.03710938 44.83886719 C37.04257202 49.69637489 37.06654815 54.55359913 37.09508133 59.41101837 C37.11379439 63.15845527 37.11891808 66.90582539 37.12044525 70.65330505 C37.12345678 72.44251542 37.13143416 74.23172504 37.14463043 76.02088928 C37.25069433 91.51750335 35.48347795 103.9548827 24.671875 115.953125 C15.1624725 124.8721433 3.07403585 127.73169521 -9.5390625 127.515625 C-21.87775397 126.46328458 -32.14639567 121.07571184 -40.63671875 112.19140625 C-47.65772752 103.27945248 -50.28671867 92.3628803 -50.203125 81.203125 C-49.18006224 75.4960396 -45.74769345 72.42219432 -41.203125 69.203125 C-36.15507996 67.52044332 -31.88228554 67.64100081 -27.015625 69.765625 C-22.97343689 72.00954761 -20.72888335 74.84852819 -19.203125 79.203125 C-18.85997657 80.90556683 -18.54865233 82.61466226 -18.265625 84.328125 C-17.47604661 89.00157545 -16.03304443 91.23493744 -12.203125 94.203125 C-8.24371439 96.18283031 -3.51559914 95.51697751 0.671875 94.515625 C3.49742066 92.77043503 3.79619651 91.33953554 4.796875 88.203125 C5.11987186 85.39776593 5.11987186 85.39776593 5.11572266 82.40307617 C5.13559235 81.26227097 5.15546204 80.12146576 5.17593384 78.9460907 C5.18748505 77.72509171 5.19903625 76.50409271 5.2109375 75.24609375 C5.23030365 73.98799393 5.2496698 72.7298941 5.2696228 71.43367004 C5.31920577 68.10138181 5.36050598 64.76920169 5.39776611 61.43676758 C5.43789124 58.03131261 5.4889446 54.6260231 5.5390625 51.22070312 C5.63504988 44.54828369 5.7201167 37.87579185 5.796875 31.203125 C4.97123047 31.21762695 4.14558594 31.23212891 3.29492188 31.24707031 C2.21275391 31.25834961 1.13058594 31.26962891 0.015625 31.28125 C-1.5940918 31.30300293 -1.5940918 31.30300293 -3.23632812 31.32519531 C-7.99455521 31.12941573 -10.70914155 29.28211304 -14.453125 26.578125 C-17.44713415 22.51482686 -18.31219755 18.06498102 -18.12109375 13.05078125 C-17.23123332 7.95608585 -14.87602269 5.45514502 -10.859375 2.33203125 C-7.29450215 -0.09779954 -4.18676303 0.02568716 0 0 Z " fill="#000000" transform="translate(113.203125,95.796875)"/>
<path d="M0 0 C3.9323173 2.65202795 6.18648186 5.30944559 7.6875 9.8125 C7.78204817 11.24567941 7.82234782 12.68281101 7.82794189 14.11909485 C7.83650711 15.43750366 7.83650711 15.43750366 7.84524536 16.782547 C7.84636322 17.74416245 7.84748108 18.70577789 7.84863281 19.6965332 C7.85359772 20.71145844 7.85856262 21.72638367 7.86367798 22.77206421 C7.87830496 26.13581008 7.88510256 29.49950878 7.890625 32.86328125 C7.89637605 35.19874574 7.90213379 37.53421022 7.90789795 39.86967468 C7.91840949 44.76980815 7.92425115 49.6699252 7.92773438 54.57006836 C7.93321908 60.84822329 7.95724615 67.12616133 7.98570633 73.40424824 C8.00433228 78.22981906 8.0095383 83.05533765 8.01107025 87.88094139 C8.01409745 90.1953875 8.02212819 92.50983268 8.03525543 94.82424355 C8.05231445 98.06309115 8.05043579 101.30140887 8.04394531 104.5402832 C8.0531601 105.49582596 8.06237488 106.45136871 8.0718689 107.43586731 C8.03914178 112.6506639 7.63082505 116.31538779 4.6875 120.8125 C-0.21401694 125.23582017 -3.22820851 126.18486971 -9.70703125 126.08203125 C-13.73841849 125.66499119 -16.30563964 124.49541305 -19.3125 121.8125 C-23.41546826 116.04186828 -23.89065504 110.47255941 -23.83007812 103.57617188 C-23.8370874 102.58323624 -23.84409668 101.5903006 -23.85131836 100.567276 C-23.86883583 97.30497771 -23.85729738 94.04355618 -23.84375 90.78125 C-23.8464467 88.50256179 -23.8503306 86.22387471 -23.85534668 83.94519043 C-23.86123329 79.17737841 -23.85270545 74.40986684 -23.83398438 69.64208984 C-23.81119574 63.54236687 -23.82432326 57.44334799 -23.84827423 51.34365082 C-23.86275461 46.64063244 -23.85811586 41.93777994 -23.84776306 37.23475647 C-23.84510199 34.9861696 -23.84834364 32.73756747 -23.85768127 30.48899841 C-23.86788344 27.34187137 -23.85229356 24.19587159 -23.83007812 21.04882812 C-23.83817505 20.12703262 -23.84627197 19.20523712 -23.85461426 18.25550842 C-23.77794085 12.36805191 -22.78674695 7.67333235 -19.3125 2.8125 C-13.59853759 -2.1920443 -6.98132273 -2.50273834 0 0 Z " fill="#000000" transform="translate(311.3125,97.1875)"/>
</svg>
