<?xml version="1.0" encoding="UTF-8"?>
<svg version="1.1" xmlns="http://www.w3.org/2000/svg" width="512" height="512">
<path d="M0 0 C5.65848607 4.46029125 8.35271943 9.95994637 11.44676208 16.36016846 C11.99175858 17.45673767 12.53675507 18.55330688 13.0982666 19.68310547 C14.24087614 21.98908489 15.37587764 24.29884809 16.50364685 26.61212158 C18.23646168 30.16636247 19.99076773 33.70931434 21.74949646 37.25079346 C22.85816858 39.49496791 23.96563371 41.73973913 25.07176208 43.98516846 C25.59664719 45.04971252 26.12153229 46.11425659 26.662323 47.21105957 C27.14024796 48.19257996 27.61817291 49.17410034 28.11058044 50.18536377 C28.53358932 51.05106995 28.95659821 51.91677612 29.39242554 52.80871582 C30.29441833 54.90704346 30.29441833 54.90704346 30.29441833 56.90704346 C31.28135681 56.69499268 32.26829529 56.48294189 33.28514099 56.26446533 C37.01348105 55.46739683 40.74558531 54.68929304 44.47898865 53.9163208 C46.08193051 53.58181333 47.68386695 53.24244397 49.28465271 52.89776611 C75.38936638 47.28754256 75.38936638 47.28754256 83.85691833 52.03204346 C89.0620383 55.9888263 92.85734301 60.37488289 94.29441833 66.90704346 C95.0275184 74.23804413 93.4673952 80.89242817 88.82176208 86.77032471 C81.67364542 93.58046895 70.728419 94.56938344 61.40769958 96.38751221 C59.75582893 96.71408562 59.75582893 96.71408562 58.07058716 97.04725647 C55.75921581 97.50262082 53.44734191 97.95544102 51.13499451 98.40582275 C47.60500675 99.09491662 44.07763276 99.79640951 40.55027771 100.49884033 C38.29456552 100.94164804 36.0387108 101.38373045 33.78269958 101.82501221 C32.73463638 102.03433884 31.68657318 102.24366547 30.60675049 102.45933533 C23.5449538 103.82077342 17.13108798 105.02568418 10.23191833 102.34454346 C9.43656677 102.05450439 8.64121521 101.76446533 7.82176208 101.46563721 C0.73739302 97.09676046 -2.60940185 89.75272891 -6.08058167 82.46954346 C-6.53046448 81.54721924 -6.98034729 80.62489502 -7.44386292 79.67462158 C-8.54046376 77.42309006 -9.62737993 75.1674278 -10.70558167 72.90704346 C-14.73935781 82.55992261 -18.74223765 92.22502824 -22.70558167 101.90704346 C-23.09278381 102.85192627 -23.47998596 103.79680908 -23.87892151 104.77032471 C-24.77489787 106.97661702 -25.65210836 109.18884054 -26.51808167 111.40704346 C-26.97827698 112.57235596 -27.43847229 113.73766846 -27.91261292 114.93829346 C-28.80226053 118.2689939 -28.97187165 119.70852613 -27.70558167 122.90704346 C-25.92704028 125.0840243 -24.17151977 127.0421597 -22.20558167 129.03204346 C-21.09889848 130.18849464 -19.99475574 131.34738193 -18.89308167 132.50860596 C-18.34780823 133.08256104 -17.80253479 133.65651611 -17.24073792 134.24786377 C-15.11462609 136.54574163 -13.15726024 138.96026995 -11.20558167 141.40704346 C-7.86256406 145.57370309 -4.35444823 149.51126111 -0.70558167 153.40704346 C3.73274508 158.1457081 7.88584083 163.02823671 11.95066833 168.09454346 C14.62653937 171.3055887 17.43852859 174.3567902 20.29441833 177.40704346 C25.54547064 183.03192483 30.69108889 188.73098342 35.29441833 194.90704346 C35.71323776 195.36878464 36.13205719 195.83052582 36.56356812 196.30625916 C42.06194493 203.29659826 41.01682381 212.04044708 40.95848083 220.46954346 C40.96185394 222.18772728 40.96671066 223.90590877 40.97297668 225.62408447 C40.98032478 229.21505581 40.96970979 232.80540285 40.9462738 236.39630127 C40.91778667 240.98293253 40.93420184 245.56810068 40.96413612 250.15467834 C40.98226541 253.69967532 40.97642546 257.24432946 40.96349716 260.78933716 C40.96017866 262.4797076 40.96419509 264.1701099 40.97589493 265.86044312 C41.0287628 275.64387564 40.94538694 283.04123594 33.85194397 290.40435791 C29.07542061 294.80598625 23.96457123 296.4259948 17.50535583 296.21563721 C10.36819773 295.21946143 4.93459495 292.40389265 0.45066833 286.78594971 C-2.21240724 282.45845189 -2.94632695 278.88208704 -2.86573792 273.8225708 C-2.85333069 272.61716644 -2.84092346 271.41176208 -2.82814026 270.16983032 C-2.80832092 268.87397003 -2.78850159 267.57810974 -2.76808167 266.24298096 C-2.75795869 264.19036527 -2.75484515 262.13780597 -2.75178528 260.08516884 C-2.74408518 255.03994834 -2.72288207 249.99598565 -2.63380432 244.95147705 C-2.57307127 241.43064439 -2.56214487 237.91254373 -2.58250427 234.39128494 C-2.58063093 232.41982188 -2.52673627 230.44862441 -2.47145081 228.47793579 C-2.5474932 221.21020755 -3.54498675 217.29158967 -8.50245667 211.83917236 C-10.23080738 210.18879734 -11.96503982 208.54455621 -13.70558167 206.90704346 C-15.19220222 205.13877739 -16.65489628 203.34979667 -18.08058167 201.53204346 C-21.9477703 196.73563635 -26.05538882 192.23662886 -30.26368713 187.74346924 C-34.16540696 183.55392779 -37.77875654 179.18540521 -41.36183167 174.71954346 C-44.03766659 171.50854155 -46.84920736 168.45679713 -49.70558167 165.40704346 C-54.20116782 160.60595262 -58.43587635 155.67138794 -62.54151917 150.52813721 C-64.76505519 147.83500964 -67.11841856 145.31849517 -69.51808167 142.78204346 C-75.07988617 136.63683288 -77.9450233 131.44969487 -77.86520386 123.05200195 C-77.61566737 119.69880025 -76.57088547 116.70312535 -75.38136292 113.59063721 C-75.12003067 112.87951279 -74.85869843 112.16838837 -74.58944702 111.43571472 C-70.27289227 99.85227409 -65.54853136 88.41947583 -60.89308167 76.96954346 C-59.91684205 74.55886903 -58.94092827 72.14806263 -57.96534729 69.73712158 C-54.39589692 60.92697263 -54.39589692 60.92697263 -52.65162659 56.63775635 C-52.29888168 55.76969864 -51.94613678 54.90164093 -51.58270264 54.00727844 C-51.0034245 52.62021754 -50.37781691 51.25151395 -49.70558167 49.90704346 C-50.62895325 50.14938721 -51.55232483 50.39173096 -52.50367737 50.64141846 C-55.92996667 51.53963584 -59.35749386 52.43304716 -62.78541565 53.32501221 C-64.26883093 53.71172211 -65.75190735 54.09973433 -67.2346344 54.48907471 C-69.36599877 55.04849542 -71.49853813 55.60322045 -73.63136292 56.15704346 C-74.29396622 56.33203369 -74.95656952 56.50702393 -75.63925171 56.68731689 C-78.42372865 57.40615403 -80.81463556 57.90704346 -83.70558167 57.90704346 C-83.96677795 58.75323242 -84.22797424 59.59942139 -84.49708557 60.47125244 C-85.76756571 64.08326597 -87.33075048 67.46327054 -89.04151917 70.87969971 C-89.36214325 71.525233 -89.68276733 72.1707663 -90.0131073 72.83586121 C-90.68851524 74.19238907 -91.36598848 75.54789041 -92.04542542 76.90240479 C-93.07756091 78.96351121 -94.09890755 81.02972599 -95.11964417 83.09649658 C-95.78045358 84.42038839 -96.44189109 85.74396692 -97.10401917 87.06719971 C-97.4052066 87.67878433 -97.70639404 88.29036896 -98.01670837 88.92048645 C-101.80909325 96.42478723 -105.80789826 100.62406923 -113.64308167 103.65704346 C-121.69463051 104.63298877 -127.61564478 103.50973057 -134.45558167 99.15704346 C-139.3261646 94.28646052 -141.43415573 89.0555843 -142.01808167 82.28204346 C-141.90586336 73.90669066 -136.77740881 65.73507605 -133.11573792 58.39141846 C-132.68933517 57.53195618 -132.26293243 56.6724939 -131.8236084 55.7869873 C-130.92901154 53.98775125 -130.03230574 52.18956233 -129.13356018 50.39239502 C-127.76663412 47.65414371 -126.41266912 44.90972814 -125.05909729 42.16485596 C-124.18292803 40.40665262 -123.30600089 38.6488267 -122.42823792 36.89141846 C-121.8295565 35.67249908 -121.8295565 35.67249908 -121.21878052 34.42895508 C-117.25192353 26.55829308 -113.33604408 21.05540275 -104.70558167 17.90704346 C-99.50801464 16.3401491 -94.2589855 15.02105408 -88.99073792 13.71954346 C-87.45086477 13.33205339 -85.91119025 12.94377326 -84.3717041 12.55474854 C-80.3279437 11.5353142 -76.28142978 10.52725643 -72.23426819 9.52142334 C-68.97450818 8.70934731 -65.71674047 7.88945464 -62.45906925 7.06904602 C-53.58823626 4.83518142 -44.71677579 2.60382131 -35.83102798 0.42993164 C-34.36424027 0.06908227 -32.8983329 -0.29535788 -31.43316269 -0.66271973 C-29.15264185 -1.23427525 -26.86973959 -1.79533156 -24.5861969 -2.35467529 C-23.89925027 -2.52932816 -23.21230364 -2.70398102 -22.50454044 -2.88392639 C-14.179189 -4.89614296 -7.24005869 -4.63951371 0 0 Z " fill="#000000" transform="translate(375.70558166503906,174.09295654296875)"/>
<path d="M0 0 C7.17195593 5.84376869 13.69080323 12.51944708 20.2421875 19.0390625 C21.17298126 19.96415619 22.10377502 20.88924988 23.06277466 21.84237671 C25.01248861 23.78170355 26.95996168 25.72325132 28.90625 27.66601562 C31.38735386 30.14159569 33.87764219 32.60772208 36.37008476 35.07187843 C38.77154809 37.45017184 41.1623604 39.83907969 43.5546875 42.2265625 C44.44324432 43.10277252 45.33180115 43.97898254 46.24728394 44.88174438 C52.87402912 51.53249922 57.60984266 57.14763987 58.25 66.75 C58.15084549 73.40574635 55.71844869 79.28155131 51 84 C44.84268105 88.25833273 39.45493347 89.69633994 32 89 C19.36627596 85.94345386 9.77670228 72.90738006 0.875 63.9375 C-0.28361712 62.77385247 -1.4424699 61.61043954 -2.6015625 60.44726562 C-5.40375764 57.63419935 -8.20277314 54.81800626 -11 52 C-14.73238842 53.64104498 -17.78490982 56.01498849 -20.94604492 58.54467773 C-21.53008968 59.01124157 -22.11413445 59.4778054 -22.71587753 59.95850754 C-30.4366602 66.19108783 -37.87296023 72.73495294 -45.1875 79.4375 C-46.24682991 80.40598122 -46.24682991 80.40598122 -47.32756042 81.39402771 C-65.98327487 98.62481531 -78.27924068 113.83562646 -79.47868347 139.87449646 C-79.6150613 145.01029793 -79.48765561 150.1190709 -79.25 155.25 C-79.21086361 156.09560863 -79.17172722 156.94121727 -79.13140488 157.81245041 C-78.59782462 168.27866869 -77.5513705 178.63638945 -76 189 C-75.43623185 188.99631283 -74.8724637 188.99262566 -74.29161167 188.98882675 C-60.54396617 188.90030763 -46.79637091 188.8344647 -33.04850101 188.79275131 C-26.39996812 188.77189899 -19.75169611 188.74362393 -13.10327148 188.69824219 C-6.6841931 188.6547014 -0.26531264 188.63084514 6.15390205 188.62049103 C8.5998604 188.61311453 11.04580822 188.59870999 13.49168205 188.57707977 C16.92429681 188.54793741 20.3560993 188.54404867 23.78881836 188.54589844 C24.79439285 188.53151733 25.79996735 188.51713623 26.83601379 188.50231934 C33.99985146 188.54394429 40.51158354 189.70501627 45.8839407 194.77947617 C51.5894995 201.09822428 52.51142615 206.00394122 52.37890625 214.51171875 C51.68878205 220.86513022 48.66047551 224.66524406 44.0625 228.875 C39.27983769 232.19358201 34.95738963 233.24776362 29.18267822 233.26742554 C27.47549622 233.28022049 27.47549622 233.28022049 25.73382568 233.29327393 C24.49940735 233.29236755 23.26498901 233.29146118 21.99316406 233.29052734 C20.68186523 233.29724457 19.37056641 233.30396179 18.01953125 233.31088257 C14.43253385 233.32850281 10.84563197 233.33323633 7.25859547 233.33451414 C5.01350991 233.33593884 2.7684484 233.34021453 0.52336884 233.34550858 C-7.32069939 233.36399747 -15.16469977 233.37218084 -23.00878906 233.37060547 C-30.30130109 233.36940518 -37.59351662 233.39048806 -44.88595366 233.4220928 C-51.16220155 233.44831652 -57.43835297 233.45897018 -63.71465516 233.45769465 C-67.45635809 233.45718669 -71.19779751 233.46277666 -74.9394455 233.48405075 C-79.11836223 233.50716331 -83.29662253 233.49787515 -87.47558594 233.48583984 C-88.70190735 233.49707886 -89.92822876 233.50831787 -91.19171143 233.51989746 C-99.07909562 233.46233086 -106.83984381 232.75407962 -112.93935776 227.24994469 C-117.43282793 222.3913793 -119.23207811 217.74602459 -119.31884766 211.1081543 C-119.33871735 209.94732834 -119.35858704 208.78650238 -119.37905884 207.59049988 C-119.39061005 206.34762711 -119.40216125 205.10475433 -119.4140625 203.82421875 C-119.43342865 202.54392288 -119.4527948 201.26362701 -119.4727478 199.9445343 C-119.52393948 196.5531222 -119.56363407 193.16167055 -119.60089111 189.77008057 C-119.64101249 186.3043042 -119.69206758 182.83869052 -119.7421875 179.37304688 C-119.83818145 172.58213605 -119.92324652 165.79115406 -120 159 C-120.53109375 159.48283447 -121.0621875 159.96566895 -121.609375 160.46313477 C-122.31578125 161.09533936 -123.0221875 161.72754395 -123.75 162.37890625 C-124.44609375 163.00611572 -125.1421875 163.6333252 -125.859375 164.27954102 C-130.61127326 168.09872749 -135.93561635 169.55067081 -141.98828125 169.2890625 C-147.79719474 168.45438367 -152.83616486 166.16383514 -157 162 C-161.25833273 155.84268105 -162.69633994 150.45493347 -162 143 C-158.97307125 130.4886945 -146.63943866 121.48635262 -137.79833984 112.63720703 C-136.59637495 111.43060183 -135.39460339 110.22380403 -134.19300842 109.01683044 C-130.95806767 105.76889369 -127.71990696 102.52418717 -124.48069715 99.28050852 C-122.45344956 97.25031367 -120.42678341 95.21954009 -118.40028763 93.18859482 C-112.04821413 86.82288978 -105.69417396 80.45915776 -99.33722055 74.09832585 C-92.01800084 66.77461428 -84.70539074 59.44438592 -77.39838445 52.10848916 C-71.73210547 46.42058969 -66.06007089 40.73847197 -60.38363993 35.06070411 C-57.00016876 31.67618663 -53.61915488 28.28929964 -50.24412155 24.89636612 C-47.07415636 21.70991054 -43.89709338 18.53070654 -40.71449089 15.35687447 C-39.55052732 14.19368032 -38.38910892 13.02793266 -37.23048973 11.85941505 C-35.6441337 10.26030684 -34.04870924 8.67080949 -32.45077515 7.08328247 C-31.56187277 6.19291353 -30.67297039 5.30254459 -29.75713158 4.38519478 C-21.13236621 -3.07609053 -10.40555277 -6.0331276 0 0 Z " fill="#000000" transform="translate(204,109)"/>
<path d="M0 0 C3.57116548 2.79264136 6.81588701 5.77643783 10 9 C10.63550781 9.61359375 11.27101563 10.2271875 11.92578125 10.859375 C22.80795594 22.15174252 27.60188871 37.93302248 27.4375 53.3125 C27.42614014 54.81635254 27.42614014 54.81635254 27.41455078 56.35058594 C27.02877927 73.81449063 20.10963204 88.43195918 8 101 C-7.13577848 114.1358558 -24.156293 119.19257486 -43.88867188 118.15966797 C-60.3969102 116.91124199 -75.6645315 108.50581509 -86.50390625 96.14453125 C-96.40447734 83.53639047 -101.60914252 69.74561133 -101.4375 53.6875 C-101.42992676 52.68493164 -101.42235352 51.68236328 -101.41455078 50.64941406 C-100.99990118 31.87819649 -93.20629489 17.9284626 -80 5 C-58.36821128 -15.16967475 -24.08560475 -16.29225994 0 0 Z " fill="#000000" transform="translate(421,53)"/>
<path d="M0 0 C5.80246936 3.35995146 9.50254739 8.15820294 11.6875 14.4375 C12.53250959 22.03024467 11.17793643 29.14719886 9.30859375 36.4765625 C9.05884293 37.48286713 8.8090921 38.48917175 8.55177307 39.52597046 C8.02296121 41.63685627 7.48730092 43.74603734 6.94506836 45.85351562 C6.12683644 49.05531387 5.34673479 52.26487411 4.56835938 55.4765625 C4.04656602 57.53964436 3.52255106 59.60216586 2.99609375 61.6640625 C2.65655922 63.08472519 2.65655922 63.08472519 2.31016541 64.53408813 C-0.68834367 75.85154359 -8.63637283 83.07093674 -16.71875 91.14453125 C-17.60228149 92.03234787 -18.48581299 92.92016449 -19.39611816 93.83488464 C-21.72398513 96.16990958 -24.05686663 98.49978846 -26.39117432 100.82836914 C-27.81528633 102.25278693 -29.23441035 103.68198676 -30.65185547 105.11303711 C-33.39562221 107.88133153 -36.14941778 110.63925449 -38.90625 113.39453125 C-40.16435486 114.66645073 -40.16435486 114.66645073 -41.44787598 115.96406555 C-48.00477007 122.46976236 -53.62333647 127.05822243 -63.0625 127.6875 C-69.71824635 127.58834549 -75.59405131 125.15594869 -80.3125 120.4375 C-84.57083273 114.28018105 -86.00883994 108.89243347 -85.3125 101.4375 C-82.69675158 90.62573986 -73.4224235 83.46883996 -65.609375 76.09375 C-63.48329617 74.06430055 -61.3593946 72.03260036 -59.23632812 70 C-57.79044944 68.62816901 -56.3340306 67.26736 -54.8671875 65.91796875 C-44.78121349 56.60922929 -39.08236682 49.11653605 -36.67834473 35.46795654 C-36.15676579 32.57316733 -35.42007913 29.74219552 -34.6875 26.89453125 C-33.99112793 24.04907761 -33.30172453 21.20348381 -32.640625 18.34960938 C-30.92130643 11.42935214 -28.83812725 6.17497508 -23.0234375 1.66015625 C-15.44295759 -2.10473093 -7.99450233 -3.5023534 0 0 Z " fill="#000000" transform="translate(319.3125,342.5625)"/>
</svg>
